<svg width="800" height="800" viewBox="0 0 800 800" fill="none" xmlns="http://www.w3.org/2000/svg">
<g clip-path="url(#clip0_478_18)">
<path fill-rule="evenodd" clip-rule="evenodd" d="M800 400C800 620.912 620.912 800 400 800C179.086 800 0 620.912 0 400C0 179.086 179.086 0 400 0C620.912 0 800 179.086 800 400ZM414.332 295.298C375.428 311.48 297.671 344.972 181.063 395.776C162.127 403.308 152.208 410.676 151.305 417.876C149.779 430.052 165.024 434.844 185.782 441.372C188.606 442.26 191.532 443.18 194.531 444.152C214.954 450.792 242.427 458.56 256.709 458.868C269.664 459.148 284.124 453.808 300.088 442.844C409.04 369.3 465.28 332.128 468.808 331.324C471.3 330.76 474.752 330.048 477.092 332.128C479.432 334.208 479.2 338.144 478.952 339.2C477.444 345.64 417.604 401.272 386.636 430.06C376.984 439.036 370.136 445.4 368.736 446.856C365.6 450.112 362.404 453.192 359.332 456.152C340.36 474.444 326.128 488.16 360.12 510.56C376.456 521.324 389.524 530.224 402.564 539.104C416.804 548.804 431.008 558.476 449.388 570.524C454.068 573.592 458.54 576.78 462.896 579.884C479.468 591.7 494.356 602.316 512.752 600.62C523.44 599.64 534.48 589.588 540.088 559.612C553.34 488.772 579.388 335.28 585.408 272.032C585.936 266.491 585.272 259.399 584.74 256.286C584.204 253.173 583.092 248.737 579.044 245.453C574.252 241.564 566.856 240.744 563.544 240.8C548.5 241.068 525.416 249.094 414.332 295.298Z" fill="#8D8D8D"/>
</g>
<defs>
<clipPath id="clip0_478_18">
<rect width="800" height="800" fill="white"/>
</clipPath>
</defs>
</svg>
